# Original asymmetric masonry flake. Units: centimetres. Flat shaded.
o SM_MasonryChip
s off
v -50 -18 -15
v -12 -35 -11
v 50 -12 -6
v 28 35 -9
v -28 22 -14
v -40 -12 5
v -8 -28 13
v 42 -8 15
v 18 25 10
v -23 16 4
vt 0 0
vt 1 0
vt 0 1
vn 0.09137954 -0.02994358 -0.99536584
vn 0.09086873 -0.02101726 -0.99564107
vn 0.09522984 -0.02749952 -0.99507540
vn -0.12876456 0.22533797 0.96573417
vn -0.12372355 0.06009430 0.99049541
vn -0.17341253 0.14010165 0.97483313
vn -0.41486798 -0.85257274 0.31781171
vn -0.48618079 -0.73984033 0.46504249
vn 0.31201579 -0.90437406 0.29112488
vn 0.35626328 -0.91130007 0.20641864
vn 0.72381272 0.37574519 0.57871469
vn 0.78142958 0.59620994 0.18412366
vn -0.24132131 0.89855625 0.36655245
vn -0.24913977 0.90488428 0.34512869
vn -0.84298438 0.45652806 0.28453377
vn -0.78418974 0.48972492 0.38107212
f 1/1/1 3/2/1 2/3/1
f 1/1/2 4/2/2 3/3/2
f 1/1/3 5/2/3 4/3/3
f 6/1/4 7/2/4 8/3/4
f 6/1/5 8/2/5 9/3/5
f 6/1/6 9/2/6 10/3/6
f 1/1/7 2/2/7 7/3/7
f 1/1/8 7/2/8 6/3/8
f 2/1/9 3/2/9 8/3/9
f 2/1/10 8/2/10 7/3/10
f 3/1/11 4/2/11 9/3/11
f 3/1/12 9/2/12 8/3/12
f 4/1/13 5/2/13 10/3/13
f 4/1/14 10/2/14 9/3/14
f 5/1/15 1/2/15 6/3/15
f 5/1/16 6/2/16 10/3/16
